<svg width="20" height="22" viewBox="0 0 20 22" fill="none" xmlns="http://www.w3.org/2000/svg">
<path d="M4.16667 18.875C3.70833 18.875 3.31583 18.7035 2.98917 18.3605C2.6625 18.0175 2.49945 17.6057 2.5 17.125V4.875C2.5 4.39375 2.66333 3.98162 2.99 3.63862C3.31667 3.29562 3.70889 3.12442 4.16667 3.125H7.66667C7.84722 2.6 8.14945 2.17708 8.57333 1.85625C8.99722 1.53542 9.47278 1.375 10 1.375C10.5278 1.375 11.0036 1.53542 11.4275 1.85625C11.8514 2.17708 12.1533 2.6 12.3333 3.125H15.8333C16.2917 3.125 16.6842 3.2965 17.0108 3.6395C17.3375 3.9825 17.5006 4.39433 17.5 4.875V17.125C17.5 17.6063 17.3367 18.0184 17.01 18.3614C16.6833 18.7044 16.2911 18.8756 15.8333 18.875H4.16667ZM4.16667 17.125H15.8333V4.875H4.16667V17.125ZM6.66667 15.375H10.8333C11.0694 15.375 11.2675 15.291 11.4275 15.123C11.5875 14.955 11.6672 14.7473 11.6667 14.5C11.6667 14.2521 11.5867 14.0441 11.4267 13.8761C11.2667 13.7081 11.0689 13.6244 10.8333 13.625H6.66667C6.43056 13.625 6.2325 13.709 6.0725 13.877C5.9125 14.045 5.83278 14.2527 5.83333 14.5C5.83333 14.7479 5.91333 14.9559 6.07333 15.1239C6.23334 15.2919 6.43111 15.3756 6.66667 15.375ZM6.66667 11.875H13.3333C13.5694 11.875 13.7675 11.791 13.9275 11.623C14.0875 11.455 14.1672 11.2473 14.1667 11C14.1667 10.7521 14.0867 10.5441 13.9267 10.3761C13.7667 10.2081 13.5689 10.1244 13.3333 10.125H6.66667C6.43056 10.125 6.2325 10.209 6.0725 10.377C5.9125 10.545 5.83278 10.7527 5.83333 11C5.83333 11.2479 5.91333 11.4559 6.07333 11.6239C6.23334 11.7919 6.43111 11.8756 6.66667 11.875ZM6.66667 8.375H13.3333C13.5694 8.375 13.7675 8.291 13.9275 8.123C14.0875 7.955 14.1672 7.74733 14.1667 7.5C14.1667 7.25208 14.0867 7.04413 13.9267 6.87613C13.7667 6.70813 13.5689 6.62442 13.3333 6.625H6.66667C6.43056 6.625 6.2325 6.709 6.0725 6.877C5.9125 7.045 5.83278 7.25267 5.83333 7.5C5.83333 7.74792 5.91333 7.95588 6.07333 8.12388C6.23334 8.29188 6.43111 8.37558 6.66667 8.375ZM10 4.21875C10.1806 4.21875 10.3297 4.15663 10.4475 4.03238C10.5653 3.90813 10.6244 3.7515 10.625 3.5625C10.625 3.37292 10.5658 3.21629 10.4475 3.09263C10.3292 2.96896 10.18 2.90683 10 2.90625C9.81945 2.90625 9.67028 2.96838 9.5525 3.09263C9.43472 3.21688 9.37556 3.3735 9.375 3.5625C9.375 3.75208 9.43417 3.90871 9.5525 4.03238C9.67084 4.15604 9.82 4.21817 10 4.21875Z" fill="#828282"/>
</svg>
