<svg width="35" height="35" viewBox="0 0 35 35" fill="none" xmlns="http://www.w3.org/2000/svg">
<g clip-path="url(#clip0_102_1942)">
<path d="M27.7083 4.37504H21.6125C21 2.68337 19.3958 1.45837 17.5 1.45837C15.6042 1.45837 14 2.68337 13.3875 4.37504H7.29167C5.6875 4.37504 4.375 5.68754 4.375 7.29171V27.7084C4.375 29.3125 5.6875 30.625 7.29167 30.625H27.7083C29.3125 30.625 30.625 29.3125 30.625 27.7084V7.29171C30.625 5.68754 29.3125 4.37504 27.7083 4.37504ZM17.5 4.01046C17.8208 4.01046 18.0979 4.15629 18.3021 4.37504C18.4771 4.56462 18.5938 4.82712 18.5938 5.10421C18.5938 5.70212 18.0979 6.19796 17.5 6.19796C16.9021 6.19796 16.4062 5.70212 16.4062 5.10421C16.4062 4.82712 16.5229 4.56462 16.6979 4.37504C16.9021 4.15629 17.1792 4.01046 17.5 4.01046ZM27.7083 27.7084H7.29167V7.29171H27.7083V27.7084ZM17.5 8.75004C15.0938 8.75004 13.125 10.7188 13.125 13.125C13.125 15.5313 15.0938 17.5 17.5 17.5C19.9062 17.5 21.875 15.5313 21.875 13.125C21.875 10.7188 19.9062 8.75004 17.5 8.75004ZM17.5 14.5834C16.6979 14.5834 16.0417 13.9271 16.0417 13.125C16.0417 12.323 16.6979 11.6667 17.5 11.6667C18.3021 11.6667 18.9583 12.323 18.9583 13.125C18.9583 13.9271 18.3021 14.5834 17.5 14.5834ZM8.75 24.0188V26.25H26.25V24.0188C26.25 20.373 20.4604 18.798 17.5 18.798C14.5396 18.798 8.75 20.3584 8.75 24.0188ZM12.1188 23.3334C13.125 22.5167 15.5896 21.7 17.5 21.7C19.4104 21.7 21.8896 22.5167 22.8813 23.3334H12.1188Z" fill="#299D91"/>
</g>
<defs>
<clipPath id="clip0_102_1942">
<rect width="35" height="35" fill="white"/>
</clipPath>
</defs>
</svg>
