<svg width="35" height="35" viewBox="0 0 35 35" fill="none" xmlns="http://www.w3.org/2000/svg">
<g clip-path="url(#clip0_102_1933)">
<path d="M10.2083 21.875H20.4167V24.7917H10.2083V21.875ZM10.2083 16.0417H24.7917V18.9584H10.2083V16.0417ZM10.2083 10.2084H24.7917V13.125H10.2083V10.2084ZM27.7083 4.37504H21.6125C21 2.68337 19.3958 1.45837 17.5 1.45837C15.6042 1.45837 14 2.68337 13.3875 4.37504H7.29167C7.0875 4.37504 6.89792 4.38962 6.70833 4.43337C6.13958 4.55004 5.62917 4.84171 5.23542 5.23546C4.97292 5.49796 4.75417 5.81879 4.60833 6.16879C4.4625 6.50421 4.375 6.88337 4.375 7.29171V27.7084C4.375 28.1021 4.4625 28.4959 4.60833 28.8459C4.75417 29.1959 4.97292 29.5021 5.23542 29.7792C5.62917 30.173 6.13958 30.4646 6.70833 30.5813C6.89792 30.6105 7.0875 30.625 7.29167 30.625H27.7083C29.3125 30.625 30.625 29.3125 30.625 27.7084V7.29171C30.625 5.68754 29.3125 4.37504 27.7083 4.37504ZM17.5 4.01046C18.0979 4.01046 18.5938 4.50629 18.5938 5.10421C18.5938 5.70212 18.0979 6.19796 17.5 6.19796C16.9021 6.19796 16.4062 5.70212 16.4062 5.10421C16.4062 4.50629 16.9021 4.01046 17.5 4.01046ZM27.7083 27.7084H7.29167V7.29171H27.7083V27.7084Z" fill="#299D91"/>
</g>
<defs>
<clipPath id="clip0_102_1933">
<rect width="35" height="35" fill="white"/>
</clipPath>
</defs>
</svg>
