<svg width="16" height="17" viewBox="0 0 16 17" fill="none" xmlns="http://www.w3.org/2000/svg">
<g clip-path="url(#clip0_20_1375)">
<path d="M5.33333 3.83301V5.16634H3.33333V13.833H12.6667V5.16634H10.6667V3.83301H12.6667C13.0203 3.83301 13.3594 3.97348 13.6095 4.22353C13.8595 4.47358 14 4.81272 14 5.16634V13.833C14 14.1866 13.8595 14.5258 13.6095 14.7758C13.3594 15.0259 13.0203 15.1663 12.6667 15.1663H3.33333C2.97971 15.1663 2.64057 15.0259 2.39052 14.7758C2.14048 14.5258 2 14.1866 2 13.833V5.16634C2 4.81272 2.14048 4.47358 2.39052 4.22353C2.64057 3.97348 2.97971 3.83301 3.33333 3.83301H5.33333ZM8 1.83301C8.17681 1.83301 8.34638 1.90325 8.4714 2.02827C8.59643 2.15329 8.66667 2.32286 8.66667 2.49967V9.71834L9.88533 8.49967C9.94723 8.43773 10.0207 8.38859 10.1016 8.35505C10.1825 8.32151 10.2692 8.30424 10.3568 8.30421C10.4443 8.30417 10.531 8.32139 10.612 8.35487C10.6929 8.38835 10.7664 8.43744 10.8283 8.49934C10.8903 8.56124 10.9394 8.63473 10.973 8.71562C11.0065 8.7965 11.0238 8.88321 11.0238 8.97077C11.0238 9.05834 11.0066 9.14505 10.9731 9.22596C10.9397 9.30688 10.8906 9.3804 10.8287 9.44234L8.58867 11.6817C8.43241 11.8378 8.22056 11.9255 7.99967 11.9255C7.77878 11.9255 7.56693 11.8378 7.41067 11.6817L5.17133 9.44234C5.10944 9.3804 5.06035 9.30688 5.02687 9.22596C4.99338 9.14505 4.97617 9.05834 4.9762 8.97077C4.97623 8.88321 4.99351 8.7965 5.02705 8.71562C5.06058 8.63473 5.10973 8.56124 5.17167 8.49934C5.23361 8.43744 5.30713 8.38835 5.38804 8.35487C5.46896 8.32139 5.55567 8.30417 5.64324 8.30421C5.7308 8.30424 5.8175 8.32151 5.89839 8.35505C5.97928 8.38859 6.05277 8.43773 6.11467 8.49967L7.33333 9.71834V2.49967C7.33333 2.32286 7.40357 2.15329 7.5286 2.02827C7.65362 1.90325 7.82319 1.83301 8 1.83301Z" fill="#299D91"/>
</g>
<defs>
<clipPath id="clip0_20_1375">
<rect width="16" height="16" fill="white" transform="translate(0 0.5)"/>
</clipPath>
</defs>
</svg>
