<svg width="25" height="21" viewBox="0 0 25 21" fill="none" xmlns="http://www.w3.org/2000/svg">
<path d="M18.1173 0.129028C16.0223 0.129028 14.1629 0.955989 12.9032 2.37736C11.6434 0.955989 9.78408 0.129028 7.68904 0.129028C5.86433 0.131236 4.11498 0.857079 2.82472 2.14735C1.53445 3.43762 0.808604 5.18696 0.806396 7.01168C0.806396 14.5555 11.8405 20.583 12.3098 20.8364C12.4922 20.9346 12.696 20.986 12.9032 20.986C13.1103 20.986 13.3142 20.9346 13.4965 20.8364C13.9658 20.583 24.9999 14.5555 24.9999 7.01168C24.9977 5.18696 24.2719 3.43762 22.9816 2.14735C21.6914 0.857079 19.942 0.131236 18.1173 0.129028ZM17.5448 14.9747C16.0924 16.2071 14.5398 17.3164 12.9032 18.2909C11.2665 17.3164 9.71393 16.2071 8.26155 14.9747C6.00175 13.0361 3.30918 10.0797 3.30918 7.01168C3.30918 5.85006 3.77063 4.73603 4.59201 3.91464C5.41339 3.09326 6.52743 2.63181 7.68904 2.63181C9.54527 2.63181 11.0991 3.61207 11.7446 5.1909C11.8385 5.42106 11.9989 5.61802 12.2053 5.75667C12.4116 5.89531 12.6546 5.96935 12.9032 5.96935C13.1518 5.96935 13.3947 5.89531 13.6011 5.75667C13.8074 5.61802 13.9678 5.42106 14.0617 5.1909C14.7073 3.61207 16.2611 2.63181 18.1173 2.63181C19.2789 2.63181 20.3929 3.09326 21.2143 3.91464C22.0357 4.73603 22.4972 5.85006 22.4972 7.01168C22.4972 10.0797 19.8046 13.0361 17.5448 14.9747Z" fill="#299D91"/>
</svg>
