<svg width="20" height="20" viewBox="0 0 20 20" fill="none" xmlns="http://www.w3.org/2000/svg">
<g clip-path="url(#clip0_8_813)">
<path fill-rule="evenodd" clip-rule="evenodd" d="M15.8334 3.95076V6.6666C16.1617 6.6666 16.4868 6.73126 16.7901 6.8569C17.0934 6.98254 17.369 7.16668 17.6011 7.39883C17.8333 7.63098 18.0174 7.90658 18.1431 8.20989C18.2687 8.5132 18.3334 8.83829 18.3334 9.1666C18.3334 9.4949 18.2687 9.81999 18.1431 10.1233C18.0174 10.4266 17.8333 10.7022 17.6011 10.9344C17.369 11.1665 17.0934 11.3507 16.7901 11.4763C16.4868 11.6019 16.1617 11.6666 15.8334 11.6666V14.1666C15.8334 15.5399 14.2659 16.3241 13.1667 15.4999L11.45 14.2116C10.5324 13.5236 9.46398 13.0642 8.33336 12.8716V15.2416C8.33345 15.7864 8.1366 16.3128 7.77911 16.7239C7.42161 17.135 6.92756 17.403 6.38804 17.4785C5.84851 17.554 5.29987 17.432 4.84326 17.1348C4.38664 16.8377 4.05283 16.3855 3.90336 15.8616L2.59502 11.2816C2.12421 10.7256 1.8178 10.0493 1.71026 9.32869C1.60272 8.6081 1.6983 7.8718 1.98626 7.20255C2.27422 6.5333 2.74314 5.95763 3.34032 5.54026C3.93749 5.12289 4.63924 4.88036 5.36669 4.83993L7.88169 4.69993C9.11221 4.63146 10.3089 4.27188 11.3734 3.65076L13.3267 2.51076C14.4384 1.86326 15.8334 2.6641 15.8334 3.95076ZM4.69502 12.5649L5.50586 15.4041C5.54488 15.5415 5.63231 15.6602 5.752 15.7382C5.87169 15.8162 6.01557 15.8482 6.15705 15.8284C6.29853 15.8086 6.42807 15.7383 6.52175 15.6304C6.61542 15.5226 6.6669 15.3845 6.66669 15.2416V12.7333L5.36669 12.6608C5.14046 12.6482 4.91574 12.6161 4.69502 12.5649ZM14.1667 3.95076L12.2125 5.0916C11.0253 5.78363 9.70154 6.2085 8.33336 6.3366V11.1858C9.82252 11.3908 11.24 11.9716 12.45 12.8783L14.1667 14.1666V3.95076ZM6.66669 6.4366L5.45836 6.50326C4.89623 6.5343 4.36616 6.77495 3.97279 7.1777C3.57941 7.58045 3.35132 8.11604 3.33353 8.67874C3.31574 9.24145 3.50954 9.79037 3.87669 10.2172C4.24384 10.644 4.75765 10.9176 5.31669 10.9841L5.45836 10.9966L6.66669 11.0633V6.4366ZM15.8334 8.33326V9.99993C16.0458 9.9997 16.25 9.91837 16.4045 9.77256C16.5589 9.62675 16.6519 9.42747 16.6643 9.21544C16.6768 9.0034 16.6078 8.79462 16.4715 8.63174C16.3351 8.46886 16.1418 8.36418 15.9309 8.3391L15.8334 8.33326Z" fill="#299D91" fill-opacity="0.5"/>
</g>
<defs>
<clipPath id="clip0_8_813">
<rect width="20" height="20" fill="white"/>
</clipPath>
</defs>
</svg>
