<svg width="21" height="20" viewBox="0 0 21 20" fill="none" xmlns="http://www.w3.org/2000/svg">
<path fill-rule="evenodd" clip-rule="evenodd" d="M10.5 10.8334C12.4967 10.8334 14.3125 11.4117 15.6483 12.2259C16.315 12.6342 16.885 13.1134 17.2967 13.6342C17.7017 14.1476 18 14.7609 18 15.4167C18 16.1209 17.6575 16.6759 17.1642 17.0717C16.6975 17.4467 16.0817 17.6951 15.4275 17.8684C14.1125 18.2159 12.3575 18.3334 10.5 18.3334C8.6425 18.3334 6.8875 18.2167 5.5725 17.8684C4.91833 17.6951 4.3025 17.4467 3.83583 17.0717C3.34167 16.6751 3 16.1209 3 15.4167C3 14.7609 3.29833 14.1476 3.70333 13.6342C4.115 13.1134 4.68417 12.6342 5.35167 12.2259C6.6875 11.4117 8.50417 10.8334 10.5 10.8334ZM10.5 12.5001C8.81417 12.5001 7.2975 12.9917 6.22 13.6492C5.68083 13.9776 5.27417 14.3342 5.01167 14.6676C4.74167 15.0092 4.66667 15.2676 4.66667 15.4167C4.66667 15.5184 4.6975 15.6259 4.87917 15.7717C5.08667 15.9384 5.4475 16.1109 5.99917 16.2567C7.0975 16.5484 8.67583 16.6667 10.5 16.6667C12.325 16.6667 13.9025 16.5476 15 16.2567C15.5525 16.1109 15.9133 15.9384 16.1208 15.7717C16.3025 15.6259 16.3333 15.5184 16.3333 15.4167C16.3333 15.2667 16.2583 15.0092 15.9892 14.6676C15.7258 14.3342 15.3192 13.9776 14.78 13.6492C13.7025 12.9909 12.1858 12.5001 10.5 12.5001ZM10.5 1.66675C11.6051 1.66675 12.6649 2.10573 13.4463 2.88714C14.2277 3.66854 14.6667 4.72835 14.6667 5.83342C14.6667 6.93848 14.2277 7.99829 13.4463 8.77969C12.6649 9.56109 11.6051 10.0001 10.5 10.0001C9.39493 10.0001 8.33512 9.56109 7.55372 8.77969C6.77232 7.99829 6.33333 6.93848 6.33333 5.83342C6.33333 4.72835 6.77232 3.66854 7.55372 2.88714C8.33512 2.10573 9.39493 1.66675 10.5 1.66675ZM10.5 3.33341C10.1717 3.33341 9.84661 3.39808 9.54329 3.52372C9.23998 3.64935 8.96438 3.8335 8.73223 4.06565C8.50009 4.29779 8.31594 4.57339 8.1903 4.87671C8.06466 5.18002 8 5.50511 8 5.83342C8 6.16172 8.06466 6.48681 8.1903 6.79012C8.31594 7.09344 8.50009 7.36904 8.73223 7.60118C8.96438 7.83333 9.23998 8.01748 9.54329 8.14311C9.84661 8.26875 10.1717 8.33342 10.5 8.33342C11.163 8.33342 11.7989 8.07002 12.2678 7.60118C12.7366 7.13234 13 6.49646 13 5.83342C13 5.17037 12.7366 4.53449 12.2678 4.06565C11.7989 3.59681 11.163 3.33341 10.5 3.33341Z" fill="white"/>
</svg>
