<svg width="21" height="20" viewBox="0 0 21 20" fill="none" xmlns="http://www.w3.org/2000/svg">
<path d="M13.0001 5.83333H8.00008M13.0001 9.16667H8.00008M13.0001 12.5H9.66675M4.66675 2.5H16.3334V17.5L15.4734 16.7633C15.1714 16.5045 14.7867 16.3622 14.3888 16.3622C13.991 16.3622 13.6063 16.5045 13.3042 16.7633L12.4442 17.5L11.5851 16.7633C11.283 16.5042 10.8981 16.3618 10.5001 16.3618C10.1021 16.3618 9.7172 16.5042 9.41508 16.7633L8.55591 17.5L7.69591 16.7633C7.39385 16.5045 7.00915 16.3622 6.61133 16.3622C6.21351 16.3622 5.82881 16.5045 5.52675 16.7633L4.66675 17.5V2.5Z" stroke="white" stroke-width="2" stroke-linecap="round" stroke-linejoin="round"/>
</svg>
