<svg width="21" height="20" viewBox="0 0 21 20" fill="none" xmlns="http://www.w3.org/2000/svg">
<path d="M14.4062 2.1875C12.8367 2.1875 11.4438 2.80703 10.5 3.87188C9.55625 2.80703 8.16328 2.1875 6.59375 2.1875C5.22674 2.18915 3.91618 2.73293 2.94956 3.69956C1.98293 4.66618 1.43915 5.97674 1.4375 7.34375C1.4375 12.9953 9.70391 17.5109 10.0555 17.7008C10.1921 17.7744 10.3448 17.8129 10.5 17.8129C10.6552 17.8129 10.8079 17.7744 10.9445 17.7008C11.2961 17.5109 19.5625 12.9953 19.5625 7.34375C19.5608 5.97674 19.0171 4.66618 18.0504 3.69956C17.0838 2.73293 15.7733 2.18915 14.4062 2.1875ZM13.9773 13.3094C12.8893 14.2327 11.7261 15.0637 10.5 15.7938C9.27387 15.0637 8.11073 14.2327 7.02266 13.3094C5.32969 11.857 3.3125 9.64219 3.3125 7.34375C3.3125 6.47351 3.6582 5.63891 4.27356 5.02356C4.88891 4.4082 5.72351 4.0625 6.59375 4.0625C7.98438 4.0625 9.14844 4.79688 9.63203 5.97969C9.70242 6.15212 9.82257 6.29967 9.97715 6.40354C10.1317 6.50741 10.3138 6.56288 10.5 6.56288C10.6862 6.56288 10.8683 6.50741 11.0228 6.40354C11.1774 6.29967 11.2976 6.15212 11.368 5.97969C11.8516 4.79688 13.0156 4.0625 14.4062 4.0625C15.2765 4.0625 16.1111 4.4082 16.7264 5.02356C17.3418 5.63891 17.6875 6.47351 17.6875 7.34375C17.6875 9.64219 15.6703 11.857 13.9773 13.3094Z" fill="white"/>
</svg>
