<svg width="21" height="20" viewBox="0 0 21 20" fill="none" xmlns="http://www.w3.org/2000/svg">
<g clip-path="url(#clip0_8_1637)">
<path fill-rule="evenodd" clip-rule="evenodd" d="M16.3332 3.95089V6.66672C16.6615 6.66672 16.9866 6.73138 17.2899 6.85702C17.5933 6.98266 17.8689 7.16681 18.101 7.39895C18.3331 7.6311 18.5173 7.9067 18.6429 8.21001C18.7686 8.51333 18.8332 8.83842 18.8332 9.16672C18.8332 9.49502 18.7686 9.82011 18.6429 10.1234C18.5173 10.4267 18.3331 10.7023 18.101 10.9345C17.8689 11.1666 17.5933 11.3508 17.2899 11.4764C16.9866 11.6021 16.6615 11.6667 16.3332 11.6667V14.1667C16.3332 15.5401 14.7657 16.3242 13.6666 15.5001L11.9499 14.2117C11.0323 13.5237 9.96386 13.0643 8.83323 12.8717V15.2417C8.83333 15.7865 8.63648 16.313 8.27898 16.724C7.92149 17.1351 7.42744 17.4031 6.88792 17.4786C6.34839 17.5541 5.79975 17.4321 5.34313 17.1349C4.88652 16.8378 4.55271 16.3856 4.40323 15.8617L3.0949 11.2817C2.62408 10.7257 2.31768 10.0494 2.21014 9.32881C2.1026 8.60822 2.19818 7.87192 2.48614 7.20267C2.7741 6.53342 3.24302 5.95775 3.84019 5.54038C4.43737 5.12301 5.13912 4.88048 5.86657 4.84005L8.38157 4.70005C9.61208 4.63158 10.8088 4.272 11.8732 3.65089L13.8266 2.51089C14.9382 1.86339 16.3332 2.66422 16.3332 3.95089ZM5.1949 12.5651L6.00573 15.4042C6.04476 15.5417 6.13219 15.6603 6.25188 15.7383C6.37157 15.8163 6.51544 15.8484 6.65693 15.8286C6.79841 15.8088 6.92795 15.7384 7.02162 15.6306C7.1153 15.5227 7.16678 15.3846 7.16657 15.2417V12.7334L5.86657 12.6609C5.64034 12.6483 5.41561 12.6163 5.1949 12.5651ZM14.6666 3.95089L12.7124 5.09172C11.5252 5.78375 10.2014 6.20862 8.83323 6.33672V11.1859C10.3224 11.3909 11.7399 11.9717 12.9499 12.8784L14.6666 14.1667V3.95089ZM7.16657 6.43672L5.95823 6.50339C5.39611 6.53442 4.86604 6.77507 4.47266 7.17782C4.07929 7.58057 3.85119 8.11616 3.8334 8.67886C3.81561 9.24157 4.00942 9.79049 4.37657 10.2173C4.74371 10.6441 5.25752 10.9177 5.81657 10.9842L5.95823 10.9967L7.16657 11.0634V6.43672ZM16.3332 8.33339V10.0001C16.5456 9.99982 16.7499 9.91849 16.9044 9.77268C17.0588 9.62687 17.1518 9.42759 17.1642 9.21556C17.1767 9.00352 17.1077 8.79474 16.9713 8.63186C16.835 8.46898 16.6416 8.36431 16.4307 8.33922L16.3332 8.33339Z" fill="white"/>
</g>
<defs>
<clipPath id="clip0_8_1637">
<rect width="20" height="20" fill="white" transform="translate(0.5)"/>
</clipPath>
</defs>
</svg>
