<svg width="21" height="20" viewBox="0 0 21 20" fill="none" xmlns="http://www.w3.org/2000/svg">
<path d="M10.5002 2.00334C10.2351 2.00334 9.98088 2.10866 9.79341 2.29613C9.60595 2.4836 9.50063 2.73787 9.50063 3.00299C9.50063 4.69439 7.45541 5.54209 6.25886 4.34551C6.16665 4.25003 6.05635 4.17388 5.93439 4.12149C5.81243 4.0691 5.68126 4.04152 5.54854 4.04037C5.41581 4.03922 5.28418 4.06451 5.16133 4.11477C5.03848 4.16503 4.92687 4.23926 4.83301 4.33312C4.73916 4.42698 4.66493 4.53859 4.61467 4.66144C4.56441 4.7843 4.53911 4.91593 4.54027 5.04866C4.54142 5.18139 4.569 5.31257 4.62139 5.43453C4.67378 5.55649 4.74993 5.66679 4.8454 5.75901C6.04195 6.95558 5.19527 9.00086 3.50291 9.00086C3.2378 9.00086 2.98354 9.10617 2.79608 9.29364C2.60861 9.48111 2.50329 9.73538 2.50329 10.0005C2.50329 10.2656 2.60861 10.5199 2.79608 10.7074C2.98354 10.8948 3.2378 11.0001 3.50291 11.0001C5.19427 11.0001 6.04195 13.0454 4.8454 14.242C4.66331 14.4305 4.56256 14.683 4.56484 14.9451C4.56711 15.2072 4.67224 15.458 4.85758 15.6433C5.04292 15.8287 5.29363 15.9338 5.55573 15.9361C5.81783 15.9383 6.07033 15.8376 6.25886 15.6555C7.45541 14.4589 9.50063 15.3056 9.50063 16.998C9.50063 17.2631 9.60595 17.5174 9.79341 17.7049C9.98088 17.8923 10.2351 17.9977 10.5002 17.9977C10.7654 17.9977 11.0196 17.8923 11.2071 17.7049C11.3946 17.5174 11.4999 17.2631 11.4999 16.998C11.4999 15.3066 13.5451 14.4589 14.7416 15.6555C14.8338 15.751 14.9441 15.8271 15.0661 15.8795C15.1881 15.9319 15.3192 15.9595 15.452 15.9606C15.5847 15.9618 15.7163 15.9365 15.8392 15.8862C15.962 15.836 16.0736 15.7617 16.1675 15.6679C16.2613 15.574 16.3356 15.4624 16.3858 15.3396C16.4361 15.2167 16.4614 15.0851 16.4602 14.9523C16.4591 14.8196 16.4315 14.6884 16.3791 14.5665C16.3267 14.4445 16.2506 14.3342 16.1551 14.242C14.9586 13.0454 15.8052 11.0001 17.4976 11.0001C17.7627 11.0001 18.017 10.8948 18.2044 10.7074C18.3919 10.5199 18.4972 10.2656 18.4972 10.0005C18.4972 9.73538 18.3919 9.48111 18.2044 9.29364C18.017 9.10617 17.7627 9.00086 17.4976 9.00086C15.8062 9.00086 14.9586 6.95558 16.1551 5.75901C16.3372 5.57047 16.4379 5.31796 16.4357 5.05586C16.4334 4.79375 16.3283 4.54303 16.1429 4.35769C15.9576 4.17235 15.7069 4.06721 15.4448 4.06494C15.1827 4.06266 14.9302 4.16342 14.7416 4.34551C13.5451 5.54209 11.4999 4.69539 11.4999 3.00299C11.4999 2.73787 11.3946 2.4836 11.2071 2.29613C11.0196 2.10866 10.7654 2.00334 10.5002 2.00334ZM7.50939 2.78007C7.56467 2.02461 7.90377 1.31805 8.45858 0.802349C9.01339 0.286645 9.74279 0 10.5002 0C11.2577 0 11.9871 0.286645 12.5419 0.802349C13.0967 1.31805 13.4358 2.02461 13.4911 2.78007C14.0647 2.28743 14.8032 2.02964 15.5588 2.05833C16.3143 2.08702 17.0312 2.40007 17.5657 2.93479C18.1003 3.46951 18.4132 4.18644 18.4417 4.94202C18.4702 5.69761 18.2123 6.43607 17.7195 7.00956C18.475 7.06472 19.1815 7.40372 19.6973 7.95845C20.2131 8.51318 20.4999 9.24256 20.5 10C20.5001 10.7575 20.2136 11.487 19.698 12.0419C19.1824 12.5968 18.4759 12.936 17.7205 12.9914C18.2131 13.565 18.4709 14.3036 18.4422 15.0591C18.4135 15.8147 18.1005 16.5316 17.5658 17.0662C17.0311 17.6008 16.3142 17.9136 15.5586 17.9422C14.803 17.9707 14.0646 17.7127 13.4911 17.2199C13.4358 17.9754 13.0967 18.6819 12.5419 19.1977C11.9871 19.7134 11.2577 20 10.5002 20C9.74279 20 9.01339 19.7134 8.45858 19.1977C7.90377 18.6819 7.56467 17.9754 7.50939 17.2199C6.93591 17.7127 6.19746 17.9707 5.4419 17.9422C4.68634 17.9136 3.96943 17.6008 3.43472 17.0662C2.90001 16.5316 2.58697 15.8147 2.55828 15.0591C2.52959 14.3036 2.78737 13.565 3.28 12.9914C2.52456 12.9362 1.81802 12.597 1.30233 12.0422C0.786638 11.4874 0.5 10.758 0.5 10.0005C0.5 9.24302 0.786638 8.5136 1.30233 7.95878C1.81802 7.40396 2.52456 7.06485 3.28 7.00956C2.78587 6.43618 2.52683 5.69713 2.55487 4.94072C2.5829 4.1843 2.89593 3.46646 3.43115 2.93123C3.96638 2.39599 4.6842 2.08295 5.44059 2.05492C6.19699 2.02688 6.93601 2.28592 7.50939 2.78007Z" fill="white"/>
<path d="M10.5004 8.00101C9.97014 8.00101 9.46162 8.21164 9.08669 8.58657C8.71176 8.9615 8.50113 9.47002 8.50113 10.0002C8.50113 10.5305 8.71176 11.039 9.08669 11.4139C9.46162 11.7889 9.97014 11.9995 10.5004 11.9995C11.0306 11.9995 11.5391 11.7889 11.914 11.4139C12.289 11.039 12.4996 10.5305 12.4996 10.0002C12.4996 9.47002 12.289 8.9615 11.914 8.58657C11.5391 8.21164 11.0306 8.00101 10.5004 8.00101ZM7.67345 7.17332C8.04229 6.79143 8.4835 6.48682 8.97133 6.27726C9.45916 6.0677 9.98384 5.9574 10.5148 5.95279C11.0457 5.94817 11.5722 6.04934 12.0636 6.25039C12.555 6.45144 13.0014 6.74834 13.3769 7.12376C13.7523 7.49919 14.0492 7.94563 14.2502 8.43703C14.4513 8.92843 14.5524 9.45494 14.5478 9.98586C14.5432 10.5168 14.4329 11.0415 14.2234 11.5293C14.0138 12.0171 13.7092 12.4583 13.3273 12.8272C12.5732 13.5555 11.5631 13.9586 10.5148 13.9494C9.46637 13.9403 8.4635 13.5198 7.72215 12.7785C6.9808 12.0371 6.56029 11.0342 6.55118 9.98586C6.54207 8.93747 6.94509 7.92745 7.67345 7.17332Z" fill="white"/>
</svg>
