<svg width="20" height="20" viewBox="0 0 20 20" fill="none" xmlns="http://www.w3.org/2000/svg">
<path d="M10 1.25C12.3206 1.25 14.5462 2.17187 16.1872 3.81282C17.8281 5.45376 18.75 7.67936 18.75 10C18.75 12.3206 17.8281 14.5462 16.1872 16.1872C14.5462 17.8281 12.3206 18.75 10 18.75C7.67936 18.75 5.45376 17.8281 3.81282 16.1872C2.17187 14.5462 1.25 12.3206 1.25 10C1.25 7.67936 2.17187 5.45376 3.81282 3.81282C5.45376 2.17187 7.67936 1.25 10 1.25ZM10 17.5C11.9891 17.5 13.8968 16.7098 15.3033 15.3033C16.7098 13.8968 17.5 11.9891 17.5 10C17.5 8.01088 16.7098 6.10322 15.3033 4.6967C13.8968 3.29018 11.9891 2.5 10 2.5C8.01088 2.5 6.10322 3.29018 4.6967 4.6967C3.29018 6.10322 2.5 8.01088 2.5 10C2.5 11.9891 3.29018 13.8968 4.6967 15.3033C6.10322 16.7098 8.01088 17.5 10 17.5ZM9.0625 12.6637L13.0587 10L9.0625 7.33625V12.6637ZM9.27 5.97125L14.1425 9.22C14.2709 9.30562 14.3762 9.4216 14.449 9.55767C14.5218 9.69374 14.5599 9.84568 14.5599 10C14.5599 10.1543 14.5218 10.3063 14.449 10.4423C14.3762 10.5784 14.2709 10.6944 14.1425 10.78L9.27 14.0287C9.12882 14.1229 8.96474 14.1769 8.79525 14.1851C8.62577 14.1933 8.45725 14.1553 8.30765 14.0753C8.15804 13.9952 8.03298 13.876 7.94578 13.7305C7.85857 13.5849 7.81251 13.4184 7.8125 13.2487V6.75C7.81251 6.58032 7.85857 6.41383 7.94578 6.26827C8.03298 6.12271 8.15804 6.00355 8.30765 5.92349C8.45725 5.84343 8.62577 5.80547 8.79525 5.81366C8.96474 5.82185 9.12882 5.87589 9.27 5.97V5.97125Z" fill="black"/>
</svg>
